<?xml version="1.0" encoding="iso-8859-1"?>
<!-- Generator: Adobe Illustrator 19.0.0, SVG Export Plug-In . SVG Version: 6.00 Build 0)  -->
<svg version="1.1" id="Capa_1" xmlns="http://www.w3.org/2000/svg" xmlns:xlink="http://www.w3.org/1999/xlink" x="0px" y="0px"
	 viewBox="0 0 511.998 511.998" style="enable-background:new 0 0 511.998 511.998;" xml:space="preserve">
<g>
	<g>
		<path d="M168.008,395.996h-8.524l38.938-38.938c2.86-2.86,3.715-7.161,2.167-10.898c-1.548-3.737-5.194-6.173-9.239-6.173h-65.665
			c-5.523,0-10,4.477-10,10s4.477,10,10,10h41.523l-38.938,38.938c-2.86,2.86-3.715,7.161-2.167,10.898
			c1.548,3.737,5.194,6.173,9.239,6.173h32.666c20.953,0,37.999,17.047,37.999,37.999s-17.047,37.999-37.999,37.999
			s-37.999-17.047-37.999-37.999c0-5.523-4.477-10-10-10c-5.523,0-10,4.477-10,10c0,31.98,26.018,57.999,57.999,57.999
			c31.98,0,57.999-26.018,57.999-57.999C226.007,422.014,199.989,395.996,168.008,395.996z"/>
	</g>
</g>
<g>
	<g>
		<path d="M290.015,339.997h-1.51c-5.523,0-10,4.477-10,10s4.477,10,10,10h1.51c28.677,0,52.008,23.331,52.008,52.009v27.979
			c0,28.677-23.33,52.009-52.008,52.009h-23.99v-40.999c0-5.523-4.477-10-10-10c-5.523,0-10,4.477-10,10v50.999
			c0,5.523,4.477,10,10,10h33.99c39.705,0,72.007-32.302,72.007-72.008v-27.979C362.023,372.299,329.72,339.997,290.015,339.997z"/>
	</g>
</g>
<g>
	<g>
		<path d="M263.096,407.925c-1.86-1.86-4.44-2.93-7.07-2.93s-5.21,1.07-7.07,2.93c-1.86,1.86-2.93,4.44-2.93,7.07
			s1.07,5.21,2.93,7.07c1.86,1.86,4.44,2.93,7.07,2.93s5.21-1.07,7.07-2.93s2.93-4.44,2.93-7.07S264.956,409.785,263.096,407.925z"
			/>
	</g>
</g>
<g>
	<g>
		<path d="M502,40.004H377.997V10.005c0-5.523-4.477-10-10-10H144.003c-5.523,0-10,4.477-10,10v29.999H10c-5.523,0-10,4.477-10,10
			v39.999c0,5.523,4.477,10,10,10h124.003v6c0,2.793,1.148,5.316,2.995,7.131l70.176,70.176c1.46,1.46,3.327,2.414,5.333,2.768
			v37.906c0,3.519,1.85,6.779,4.871,8.584l28.729,17.166c-0.049,0.402-0.082,0.809-0.082,1.224v130.039c0,5.523,4.477,10,10,10
			c5.523,0,10-4.477,10-10V250.958c0-0.422-0.035-0.836-0.086-1.245l28.694-17.145c3.021-1.805,4.871-5.065,4.871-8.584v-37.906
			c2.006-0.354,3.874-1.308,5.333-2.768l70.236-70.235c-0.001-0.002-0.002-0.003-0.003-0.005c1.807-1.809,2.925-4.307,2.925-7.067
			v-6h124.003c5.523,0,10-4.477,10-10V50.005C512,44.481,507.523,40.004,502,40.004z M134.003,80.003H20v-20h114.003V80.003z
			 M279.505,218.31l-23.499,14.042l-23.499-14.042v-32.071h46.999V218.31z M293.626,166.238h-75.239l-50.236-50.236h175.711
			L293.626,166.238z M357.998,96.003H154.002V68.003h116.17c5.523,0,10-4.477,10-10s-4.477-10-10-10h-116.17V20.005h203.995V96.003z
			 M492,80.003L492,80.003H377.997v-20H492V80.003z"/>
	</g>
</g>
<g>
	<g>
		<path d="M312.69,48.004h-0.148c-5.523,0-10,4.477-10,10s4.477,10,10,10h0.148c5.523,0,10-4.477,10-10
			S318.213,48.004,312.69,48.004z"/>
	</g>
</g>
<g>
</g>
<g>
</g>
<g>
</g>
<g>
</g>
<g>
</g>
<g>
</g>
<g>
</g>
<g>
</g>
<g>
</g>
<g>
</g>
<g>
</g>
<g>
</g>
<g>
</g>
<g>
</g>
<g>
</g>
</svg>
