<?xml version="1.0"?>
<svg xmlns="http://www.w3.org/2000/svg" viewBox="0 0 64 64" width="512" height="512"><g id="Auto_car" data-name="Auto car"><path d="M15,48a3,3,0,1,0,3,3A3,3,0,0,0,15,48Zm0,4a1,1,0,1,1,1-1A1,1,0,0,1,15,52Z"/><path d="M59.968,44.16A11.015,11.015,0,0,0,49.952,34.046,14.97,14.97,0,0,0,44.361,23.3c-.012-.013-.029-.02-.042-.032A14.916,14.916,0,0,0,35,20H23A15.006,15.006,0,0,0,8.046,34.1,5.006,5.006,0,0,0,4,39v5.171A3.006,3.006,0,0,0,2,47v2a3,3,0,0,0,3,3H8.08a6.991,6.991,0,0,0,13.84,0H42.08a6.991,6.991,0,0,0,13.84,0H59a3,3,0,0,0,3-3V47A3.006,3.006,0,0,0,59.968,44.16ZM47.962,34H16a9.011,9.011,0,0,1,9-9H43.278A12.974,12.974,0,0,1,47.962,34ZM23,22H35a12.922,12.922,0,0,1,4.983,1H25A11.013,11.013,0,0,0,14,34H10.038A13.017,13.017,0,0,1,23,22ZM15,56a5,5,0,1,1,5-5A5.006,5.006,0,0,1,15,56Zm34,0a5,5,0,1,1,5-5A5.006,5.006,0,0,1,49,56Zm11-7a1,1,0,0,1-1,1H55.92a6.991,6.991,0,0,0-13.84,0H21.92A6.991,6.991,0,0,0,8.08,50H5a1,1,0,0,1-1-1V47a1,1,0,0,1,1-1,1,1,0,0,0,1-1V39a3,3,0,0,1,3-3H49a9.011,9.011,0,0,1,9,9,1,1,0,0,0,1,1,1,1,0,0,1,1,1Z"/><path d="M49,48a3,3,0,1,0,3,3A3,3,0,0,0,49,48Zm0,4a1,1,0,1,1,1-1A1,1,0,0,1,49,52Z"/><path d="M32,37a1,1,0,0,0-1,1V48a1,1,0,0,0,2,0V38A1,1,0,0,0,32,37Z"/><path d="M49,37a1,1,0,0,0-1,1v4a1,1,0,0,0,2,0V38A1,1,0,0,0,49,37Z"/><path d="M32,26a1,1,0,0,0-1,1v5a1,1,0,0,0,2,0V27A1,1,0,0,0,32,26Z"/><path d="M10,37a3,3,0,1,0,3,3A3,3,0,0,0,10,37Zm0,4a1,1,0,1,1,1-1A1,1,0,0,1,10,41Z"/><path d="M49,60H15a1,1,0,0,0,0,2H49a1,1,0,0,0,0-2Z"/><path d="M11,60H10a1,1,0,0,0,0,2h1a1,1,0,0,0,0-2Z"/><path d="M23,59a1,1,0,0,0,0-2H22a1,1,0,0,0,0,2Z"/><path d="M42,59a1,1,0,0,0,0-2H27a1,1,0,0,0,0,2Z"/><path d="M54,14a4,4,0,1,1,4-4A4,4,0,0,1,54,14Zm0-6a2,2,0,1,0,2,2A2,2,0,0,0,54,8Z"/><path d="M54,2a8.009,8.009,0,0,0-8,8c0,4.155,6.541,10.94,7.286,11.7a1,1,0,0,0,1.428,0C55.459,20.94,62,14.155,62,10A8.009,8.009,0,0,0,54,2Zm0,17.547c-2.161-2.341-6-7.023-6-9.547a6,6,0,0,1,12,0C60,12.521,56.161,17.2,54,19.547Z"/><path d="M7.172,12.171A1,1,0,0,1,6.5,10.432l.27-.245A14.373,14.373,0,0,1,25.2,10.158l.3.273a1,1,0,0,1-1.346,1.478l-.268-.244a12.357,12.357,0,0,0-15.8.029l-.236.217A1,1,0,0,1,7.172,12.171Z"/><path d="M19.438,18.071a1,1,0,0,1-.64-.232,4.372,4.372,0,0,0-5.6,0,1,1,0,0,1-1.28-1.536,6.367,6.367,0,0,1,8.156,0,1,1,0,0,1-.64,1.768Z"/><path d="M22.707,13.293h0a10.377,10.377,0,0,0-13.412,0h0a1,1,0,0,0,1.349,1.474,8.343,8.343,0,0,1,10.716,0,1,1,0,0,0,1.349-1.474Z"/></g></svg>
