<svg height="512pt" viewBox="-20 0 512 512" width="512pt" xmlns="http://www.w3.org/2000/svg"><path d="m457 172h-26v-56.996094c0-3.980468-1.578125-7.792968-4.394531-10.605468l-99.996094-100.003907c-2.8125-2.816406-6.628906-4.394531-10.605469-4.394531h-260.003906c-8.285156 0-15 6.714844-15 15v157h-26c-8.285156 0-15 6.714844-15 15v240c0 8.285156 6.714844 15 15 15h26v55c0 8.285156 6.714844 15 15 15h360c8.285156 0 15-6.714844 15-15v-55h26c8.285156 0 15-6.714844 15-15v-240c0-8.285156-6.714844-15-15-15zm-126-120.789062 48.785156 48.789062h-48.785156zm-260-21.210938h230v85c0 8.285156 6.714844 15 15 15h85v42h-330zm330 452h-330v-40h330zm41-70h-412v-210h412zm0 0"/><path d="m139 262c8.269531 0 15 6.730469 15 15 0 8.285156 6.714844 15 15 15s15-6.714844 15-15c0-24.8125-20.1875-45-45-45s-45 20.1875-45 45v60c0 24.8125 20.1875 45 45 45s45-20.1875 45-45c0-8.285156-6.714844-15-15-15s-15 6.714844-15 15c0 8.269531-6.730469 15-15 15s-15-6.730469-15-15v-60c0-8.269531 6.730469-15 15-15zm0 0"/><path d="m261 292h-10v-10c0-8.285156-6.714844-15-15-15s-15 6.714844-15 15v10h-10c-8.285156 0-15 6.714844-15 15s6.714844 15 15 15h10v10c0 8.285156 6.714844 15 15 15s15-6.714844 15-15v-10h10c8.285156 0 15-6.714844 15-15s-6.714844-15-15-15zm0 0"/><path d="m361 292h-10v-10c0-8.285156-6.714844-15-15-15s-15 6.714844-15 15v10h-10c-8.285156 0-15 6.714844-15 15s6.714844 15 15 15h10v10c0 8.285156 6.714844 15 15 15s15-6.714844 15-15v-10h10c8.285156 0 15-6.714844 15-15s-6.714844-15-15-15zm0 0"/></svg>