<svg height="512pt" viewBox="0 0 512 512.00061" width="512pt" xmlns="http://www.w3.org/2000/svg"><path d="m134.035156 79.300781-51.203125-51.199219c-3.347656-3.234374-8.667969-3.1875-11.960937.101563-3.292969 3.292969-3.335938 8.617187-.105469 11.964844l51.203125 51.199219c3.347656 3.234374 8.667969 3.1875 11.960938-.105469 3.292968-3.289063 3.335937-8.613281.105468-11.960938zm0 0"/><path d="m409.601562 358.402344c0 4.710937-3.820312 8.53125-8.535156 8.53125-4.710937 0-8.53125-3.820313-8.53125-8.53125 0-4.714844 3.820313-8.535156 8.53125-8.535156 4.714844 0 8.535156 3.820312 8.535156 8.535156zm0 0"/><path d="m384 384c0 4.714844-3.820312 8.535156-8.53125 8.535156-4.714844 0-8.535156-3.820312-8.535156-8.535156 0-4.710938 3.820312-8.53125 8.535156-8.53125 4.710938 0 8.53125 3.820312 8.53125 8.53125zm0 0"/><path d="m358.398438 409.601562c0 4.710938-3.820313 8.53125-8.53125 8.53125-4.714844 0-8.535157-3.820312-8.535157-8.53125 0-4.714843 3.820313-8.535156 8.535157-8.535156 4.710937 0 8.53125 3.820313 8.53125 8.535156zm0 0"/><path d="m332.800781 435.199219c0 4.714843-3.820312 8.535156-8.535156 8.535156-4.710937 0-8.53125-3.820313-8.53125-8.535156 0-4.710938 3.820313-8.53125 8.53125-8.53125 4.714844 0 8.535156 3.820312 8.535156 8.53125zm0 0"/><path d="m443.734375 460.800781c0 4.710938-3.820313 8.53125-8.535156 8.53125-4.710938 0-8.53125-3.820312-8.53125-8.53125 0-4.714843 3.820312-8.535156 8.53125-8.535156 4.714843 0 8.535156 3.820313 8.535156 8.535156zm0 0"/><path d="m409.601562 460.800781c0 4.710938-3.820312 8.53125-8.535156 8.53125-4.710937 0-8.53125-3.820312-8.53125-8.53125 0-4.714843 3.820313-8.535156 8.53125-8.535156 4.714844 0 8.535156 3.820313 8.535156 8.535156zm0 0"/><path d="m375.46875 460.800781c0 4.710938-3.824219 8.53125-8.535156 8.53125-4.710938 0-8.535156-3.820312-8.535156-8.53125 0-4.714843 3.824218-8.535156 8.535156-8.535156 4.710937 0 8.535156 3.820313 8.535156 8.535156zm0 0"/><path d="m341.332031 460.800781c0 4.710938-3.820312 8.53125-8.53125 8.53125-4.714843 0-8.535156-3.820312-8.535156-8.53125 0-4.714843 3.820313-8.535156 8.535156-8.535156 4.710938 0 8.53125 3.820313 8.53125 8.535156zm0 0"/><path d="m307.199219 460.800781c0 4.710938-3.820313 8.53125-8.53125 8.53125-4.714844 0-8.535157-3.820312-8.535157-8.53125 0-4.714843 3.820313-8.535156 8.535157-8.535156 4.710937 0 8.53125 3.820313 8.53125 8.535156zm0 0"/><path d="m119.46875 358.402344c0 4.710937-3.824219 8.53125-8.535156 8.53125-4.710938 0-8.535156-3.820313-8.535156-8.53125 0-4.714844 3.824218-8.535156 8.535156-8.535156 4.710937 0 8.535156 3.820312 8.535156 8.535156zm0 0"/><path d="m145.066406 384c0 4.714844-3.820312 8.535156-8.53125 8.535156-4.714844 0-8.535156-3.820312-8.535156-8.535156 0-4.710938 3.820312-8.53125 8.535156-8.53125 4.710938 0 8.53125 3.820312 8.53125 8.53125zm0 0"/><path d="m170.667969 409.601562c0 4.710938-3.820313 8.53125-8.535157 8.53125-4.710937 0-8.53125-3.820312-8.53125-8.53125 0-4.714843 3.820313-8.535156 8.53125-8.535156 4.714844 0 8.535157 3.820313 8.535157 8.535156zm0 0"/><path d="m196.265625 435.199219c0 4.714843-3.820313 8.535156-8.53125 8.535156-4.714844 0-8.535156-3.820313-8.535156-8.535156 0-4.710938 3.820312-8.53125 8.535156-8.53125 4.710937 0 8.53125 3.820312 8.53125 8.53125zm0 0"/><path d="m85.332031 460.800781c0 4.710938-3.820312 8.53125-8.53125 8.53125-4.714843 0-8.535156-3.820312-8.535156-8.53125 0-4.714843 3.820313-8.535156 8.535156-8.535156 4.710938 0 8.53125 3.820313 8.53125 8.535156zm0 0"/><path d="m119.46875 460.800781c0 4.710938-3.824219 8.53125-8.535156 8.53125-4.710938 0-8.535156-3.820312-8.535156-8.53125 0-4.714843 3.824218-8.535156 8.535156-8.535156 4.710937 0 8.535156 3.820313 8.535156 8.535156zm0 0"/><path d="m153.601562 460.800781c0 4.710938-3.820312 8.53125-8.535156 8.53125-4.710937 0-8.53125-3.820312-8.53125-8.53125 0-4.714843 3.820313-8.535156 8.53125-8.535156 4.714844 0 8.535156 3.820313 8.535156 8.535156zm0 0"/><path d="m187.734375 460.800781c0 4.710938-3.820313 8.53125-8.535156 8.53125-4.710938 0-8.53125-3.820312-8.53125-8.53125 0-4.714843 3.820312-8.535156 8.53125-8.535156 4.714843 0 8.535156 3.820313 8.535156 8.535156zm0 0"/><path d="m221.867188 460.800781c0 4.710938-3.820313 8.53125-8.535157 8.53125-4.710937 0-8.53125-3.820312-8.53125-8.53125 0-4.714843 3.820313-8.535156 8.53125-8.535156 4.714844 0 8.535157 3.820313 8.535157 8.535156zm0 0"/><path d="m503.46875 494.933594h-238.933594v-70.679688c1.894532-1.082031 3.578125-2.507812 4.957032-4.203125l61.601562-82.128906c.160156-.285156.300781-.582031.421875-.886719.628906-.984375 1.003906-2.109375 1.09375-3.277344.082031-.3125.148437-.632812.191406-.957031v-42.667969h59.734375c9.417969-.007812 17.054688-7.644531 17.066406-17.066406v-25.597656c-.011718-9.421875-7.648437-17.058594-17.066406-17.066406h-8.535156v-25.601563h8.535156c9.417969-.011719 17.054688-7.644531 17.066406-17.066406v-25.601563c-.011718-9.421874-7.648437-17.054687-17.066406-17.066406h-8.535156v-25.597656h6.558594c8.980468.015625 17.605468-3.523438 23.980468-9.851562l81.980469-80.980469c4.652344-4.957031 5.867188-12.222657 3.085938-18.421875-2.675781-6.242188-8.839844-10.2695315-15.628907-10.214844h-455.949218c-6.796875-.0585938-12.960938 3.972656-15.636719 10.21875-2.804687 6.335938-1.472656 13.742188 3.359375 18.710938l81.707031 80.691406c6.378907 6.324218 15.003907 9.867187 23.984375 9.847656h6.558594v25.597656h-8.53125c-9.421875.011719-17.058594 7.644532-17.070312 17.066406v25.601563c.011718 9.421875 7.648437 17.054687 17.070312 17.066406h8.53125v25.601563h-8.53125c-9.421875.007812-17.058594 7.644531-17.070312 17.066406v25.597656c.011718 9.421875 7.648437 17.058594 17.070312 17.066406h59.730469v42.667969c.046875.324219.109375.644531.195312.957031.089844 1.167969.464844 2.292969 1.089844 3.277344.125.304688.265625.597656.421875.886719l61.757812 82.335937c1.339844 1.625 2.96875 2.988282 4.804688 4.019532v70.65625h-238.933594c-4.714844 0-8.535156 3.820312-8.535156 8.535156 0 4.710938 3.820312 8.53125 8.535156 8.53125h494.933594c4.710938 0 8.53125-3.820312 8.53125-8.53125 0-4.714844-3.820312-8.535156-8.53125-8.535156zm-341.335938-307.199219v-25.601563h42.667969v25.601563zm59.734376-25.601563h68.265624v25.601563h-68.265624zm85.332031 0h42.667969v25.601563h-42.667969zm85.34375 25.601563h-25.609375v-25.601563h25.601562zm-283.085938-90.257813-81.429687-80.410156 456.222656-.28125-81.707031 80.691406c-3.183594 3.164063-7.496094 4.933594-11.984375 4.925782h-269.117188c-4.488281.007812-8.800781-1.761719-11.984375-4.925782zm35.609375 21.992188h221.867188v25.597656h-221.867188zm-25.597656 42.664062h25.597656v25.601563h-25.597656zm25.597656 42.667969h221.867188v25.601563h-221.867188zm-25.597656 42.667969h273.066406l.007813 25.597656h-273.074219zm85.332031 93.863281h76.800781c4.710938 0 8.53125-3.820312 8.53125-8.53125 0-4.714843-3.820312-8.535156-8.53125-8.535156h-85.335937v-34.132813h119.46875v39.835938l-59.460937 79.6875c-.09375 0-.171876-.054688-.269532-.054688zm0 0"/></svg>