<svg height="512pt" viewBox="-67 0 512 512" width="512pt" xmlns="http://www.w3.org/2000/svg"><path d="m173 70.75c0-18.472656-15.027344-33.5-33.5-33.5s-33.5 15.027344-33.5 33.5 15.027344 33.5 33.5 33.5 33.5-15.027344 33.5-33.5zm-33.5 18.5c-10.199219 0-18.5-8.300781-18.5-18.5s8.300781-18.5 18.5-18.5 18.5 8.300781 18.5 18.5-8.300781 18.5-18.5 18.5zm0 0"/><path d="m237.5 104.25c18.472656 0 33.5-15.027344 33.5-33.5s-15.027344-33.5-33.5-33.5-33.5 15.027344-33.5 33.5 15.027344 33.5 33.5 33.5zm0-52c10.199219 0 18.5 8.300781 18.5 18.5s-8.300781 18.5-18.5 18.5-18.5-8.300781-18.5-18.5 8.300781-18.5 18.5-18.5zm0 0"/><path d="m369.5 231.25c4.140625 0 7.5-3.359375 7.5-7.5v-7.75c0-20.679688-16.820312-37.5-37.5-37.5-8.433594 0-16.226562 2.800781-22.5 7.519531v-2.019531c0-12.957031-10.542969-23.5-23.5-23.5h-66.839844v-15.5h16.839844c31.707031 0 57.5-25.792969 57.5-57.5v-30c0-31.707031-25.792969-57.5-57.5-57.5h-110c-31.707031 0-57.5 25.792969-57.5 57.5v30c0 31.707031 25.792969 57.5 57.5 57.5h18.160156v15.5h-27.328125c-4.140625 0-7.5 3.359375-7.5 7.5s3.359375 7.5 7.5 7.5h169.167969c4.6875 0 8.5 3.8125 8.5 8.5v98c0 4.6875-3.8125 8.5-8.5 8.5h-210c-4.6875 0-8.5-3.8125-8.5-8.5v-98c0-4.6875 3.8125-8.5 8.5-8.5h9c4.140625 0 7.5-3.359375 7.5-7.5s-3.359375-7.5-7.5-7.5h-9c-12.957031 0-23.5 10.542969-23.5 23.5v2.019531c-6.273438-4.71875-14.066406-7.519531-22.5-7.519531-20.679688 0-37.5 16.820312-37.5 37.5v140c0 20.679688 16.820312 37.5 37.5 37.5s37.5-16.820312 37.5-37.5v-52.089844c2.636719 1.027344 5.503906 1.589844 8.5 1.589844h27.5v15h-4.5c-9.648438 0-17.5 7.851562-17.5 17.5v40c0 9.648438 7.851562 17.5 17.5 17.5h.5v20.25c0 4.140625 3.359375 7.5 7.5 7.5s7.5-3.359375 7.5-7.5v-20.25h45v79c0 12.40625-10.09375 22.5-22.5 22.5s-22.5-10.09375-22.5-22.5v-26.5c0-4.140625-3.359375-7.5-7.5-7.5s-7.5 3.359375-7.5 7.5v26.5c0 20.679688 16.820312 37.5 37.5 37.5s37.5-16.820312 37.5-37.5v-79h13v79c0 20.679688 16.820312 37.5 37.5 37.5s37.5-16.820312 37.5-37.5v-79h.5c9.648438 0 17.5-7.851562 17.5-17.5v-40c0-9.648438-7.851562-17.5-17.5-17.5h-4.5v-15h27.5c2.996094 0 5.863281-.5625 8.5-1.589844v52.089844c0 20.679688 16.820312 37.5 37.5 37.5s37.5-16.820312 37.5-37.5v-100c0-4.140625-3.359375-7.5-7.5-7.5s-7.5 3.359375-7.5 7.5v24.5h-45v-64.5c0-12.40625 10.09375-22.5 22.5-22.5s22.5 10.09375 22.5 22.5v7.75c0 4.140625 3.359375 7.5 7.5 7.5zm-278.5-143.75v-30c0-23.433594 19.066406-42.5 42.5-42.5h110c23.433594 0 42.5 19.066406 42.5 42.5v30c0 23.433594-19.066406 42.5-42.5 42.5h-110c-23.433594 0-42.5-19.066406-42.5-42.5zm75.660156 73v-15.5h45v15.5zm-129.160156 33c12.40625 0 22.5 10.09375 22.5 22.5v64.5h-45v-64.5c0-12.40625 10.09375-22.5 22.5-22.5zm-22.5 102h45v25h-45zm22.5 83c-12.40625 0-22.5-10.09375-22.5-22.5v-20.5h45v20.5c0 12.40625-10.09375 22.5-22.5 22.5zm217.5 96c0 12.40625-10.09375 22.5-22.5 22.5s-22.5-10.09375-22.5-22.5v-79h45zm18-136.5v40c0 1.378906-1.121094 2.5-2.5 2.5h-164c-1.378906 0-2.5-1.121094-2.5-2.5v-40c0-1.378906 1.121094-2.5 2.5-2.5h29.253906c3.484375 17.097656 18.636719 30 36.746094 30h32c18.109375 0 33.261719-12.902344 36.746094-30h29.253906c1.378906 0 2.5 1.121094 2.5 2.5zm-121.714844-2.5h74.429688c-3.09375 8.730469-11.4375 15-21.214844 15h-32c-9.777344 0-18.121094-6.269531-21.214844-15zm99.714844-15h-125v-15h125zm88.5 58c-12.40625 0-22.5-10.09375-22.5-22.5v-20.5h45v20.5c0 12.40625-10.09375 22.5-22.5 22.5zm22.5-58h-45v-25h45zm0 0"/><path d="m114.5 238.5h150c12.40625 0 22.5-10.09375 22.5-22.5s-10.09375-22.5-22.5-22.5h-150c-12.40625 0-22.5 10.09375-22.5 22.5s10.09375 22.5 22.5 22.5zm0-30h150c4.136719 0 7.5 3.363281 7.5 7.5s-3.363281 7.5-7.5 7.5h-150c-4.136719 0-7.5-3.363281-7.5-7.5s3.363281-7.5 7.5-7.5zm0 0"/></svg>