<?xml version="1.0" encoding="iso-8859-1"?>
<!-- Generator: Adobe Illustrator 19.0.0, SVG Export Plug-In . SVG Version: 6.00 Build 0)  -->
<svg version="1.1" id="Layer_1" xmlns="http://www.w3.org/2000/svg" xmlns:xlink="http://www.w3.org/1999/xlink" x="0px" y="0px"
	 viewBox="0 0 512 512" style="enable-background:new 0 0 512 512;" xml:space="preserve">
<g>
	<g>
		<path d="M254.993,262.226c-0.109-0.122-0.223-0.243-0.339-0.359c-10.208-10.207-21.574-14.711-33.915-13.486
			c4.76-8.316,7.309-17.761,7.309-27.601c0-14.881-5.795-28.872-16.318-39.394c-21.723-21.721-57.064-21.721-78.787,0
			c-21.721,21.722-21.721,57.065,0,78.787c10.856,10.856,25.109,16.284,39.368,16.291c-3.401,3.166-6.7,6.388-9.859,9.547
			l-35.384,35.384L20.901,215.226c-1.745-1.745-4.228-2.542-6.662-2.139c-2.436,0.403-4.529,1.957-5.619,4.171l-7.833,15.908
			c-1.102,2.239-1.044,4.876,0.156,7.064c0.158,0.288,15.829,29.005,18.722,48.168c1.276,8.396,7.47,14.699,15.795,16.057
			l10.689,1.729l42.074,54.057l-10.795,10.795c-8.54,8.541-10.343,21.843-4.38,32.348c3.982,7.016,10.823,11.84,18.768,13.236
			c1.565,0.276,3.135,0.41,4.694,0.41c6.357,0,12.534-2.25,17.46-6.455l8.399-7.17l22.852,22.851
			c1.495,1.494,3.455,2.242,5.414,2.242c1.959,0,3.918-0.747,5.414-2.242c2.99-2.99,2.99-7.837,0-10.825l-21.998-21.998
			l25.947-22.151l44.923,44.923l-0.034,48.064l-32.511-32.51c-2.991-2.99-7.837-2.99-10.826,0s-2.99,7.837,0,10.825l45.57,45.57
			c11.202,11.201,25.852,17.185,41.079,17.184c5.133,0,10.332-0.68,15.486-2.069c20.479-5.521,35.948-21.068,41.378-41.584
			C318.301,411.764,320.359,336.634,254.993,262.226z M132.114,217.018c0.86-9.371,4.92-18.069,11.656-24.807
			c7.631-7.631,17.776-11.833,28.567-11.833c10.791,0,20.937,4.202,28.568,11.833c2.951,2.951,5.382,6.281,7.263,9.876
			L132.114,217.018z M143.77,249.347c-4.825-4.825-8.275-10.657-10.163-17.021l78.94-15.497c0.126,1.304,0.191,2.622,0.191,3.95
			c0,10.792-4.203,20.937-11.835,28.568c-7.631,7.631-17.776,11.833-28.567,11.833C161.546,261.18,151.4,256.977,143.77,249.347z
			 M56.382,294.406c-1.188-1.527-2.91-2.547-4.82-2.855l-13.646-2.208c-1.733-0.283-2.839-1.436-3.113-3.239
			c-2.673-17.702-14.001-40.884-18.554-49.684l1.383-2.81l98.61,98.611l-17.111,17.11L56.382,294.406z M171.677,361.312
			l13.507-11.531c10.398,15.64,15.347,31.073,17.691,42.729L171.677,361.312z M290.263,457.767
			c-4.012,15.16-15.437,26.645-30.563,30.722c-14.101,3.801-28.648,0.404-39.515-9.073l0.039-55.642l72.224,24.915
			C291.784,451.712,291.066,454.738,290.263,457.767z M295.216,433.449l-75.02-25.879c-0.493-11.801-3.887-39.484-23.302-67.784
			l21.548-18.395c3.215-2.745,3.597-7.576,0.852-10.793c-2.744-3.215-7.578-3.598-10.792-0.851l-104.474,89.187
			c-2.648,2.261-6.131,3.211-9.564,2.61c-3.43-0.602-6.383-2.685-8.102-5.714c-2.573-4.536-1.796-10.278,1.892-13.966l85.026-85.026
			c34.84-34.84,53.294-41.235,70.379-24.314c27.054,30.856,44.062,64.395,50.55,99.686
			C297.877,392.154,298.196,412.668,295.216,433.449z"/>
	</g>
</g>
<g>
	<g>
		<path d="M454.496,103.793c-0.108-0.125-0.221-0.244-0.338-0.361c-10.214-10.213-21.585-14.716-33.935-13.483
			c12.124-21.266,9.136-48.871-8.989-66.997c-21.722-21.721-57.064-21.723-78.788,0c-21.721,21.722-21.721,57.065,0,78.787
			c10.511,10.51,24.481,16.302,39.341,16.317c-3.392,3.158-6.681,6.371-9.831,9.521l-9.62,9.62c-2.99,2.99-2.99,7.837,0.001,10.826
			c2.989,2.99,7.836,2.989,10.825,0l9.62-9.62c34.842-34.842,53.295-41.232,70.379-24.314c27.054,30.856,44.062,64.395,50.55,99.686
			c3.668,19.946,3.987,40.46,1.007,61.241l-75.02-25.879c-0.494-11.801-3.888-39.484-23.302-67.785l21.547-18.395
			c3.215-2.745,3.597-7.577,0.852-10.793c-2.744-3.214-7.577-3.598-10.792-0.851l-104.473,89.187
			c-2.648,2.261-6.132,3.212-9.564,2.61c-3.429-0.602-6.383-2.685-8.102-5.714c-2.573-4.536-1.796-10.278,1.892-13.966
			l59.075-59.075c2.99-2.99,2.99-7.837,0-10.825c-2.991-2.99-7.837-2.99-10.826,0l-9.433,9.434L220.404,56.793
			c-1.745-1.745-4.223-2.541-6.662-2.139c-2.436,0.403-4.529,1.956-5.619,4.171l-7.834,15.907c-1.102,2.239-1.044,4.876,0.156,7.064
			c0.158,0.288,15.829,29.005,18.723,48.167c1.274,8.397,7.469,14.699,15.795,16.058l10.688,1.729l42.075,54.057l-10.795,10.795
			c-8.54,8.541-10.343,21.843-4.38,32.348c3.982,7.016,10.823,11.84,18.768,13.236c1.565,0.276,3.135,0.41,4.694,0.41
			c6.357,0,12.534-2.25,17.46-6.455l8.399-7.17l84.751,84.751c11.202,11.201,25.852,17.185,41.08,17.184
			c5.132,0,10.332-0.68,15.486-2.069c20.479-5.521,35.948-21.068,41.377-41.584C517.803,253.331,519.862,178.202,454.496,103.793z
			 M331.617,58.584c0.859-9.371,4.919-18.069,11.655-24.807c15.753-15.752,41.385-15.752,57.137,0
			c2.983,2.982,5.398,6.321,7.252,9.878L331.617,58.584z M400.409,90.914c-7.631,7.631-17.776,11.834-28.567,11.834
			c-10.792,0-20.937-4.203-28.568-11.834c-4.826-4.826-8.276-10.658-10.163-17.021L412.03,58.4
			C413.16,70.018,409.287,82.035,400.409,90.914z M255.884,135.972c-1.188-1.527-2.91-2.547-4.82-2.855l-13.646-2.208
			c-1.733-0.283-2.839-1.435-3.113-3.239c-2.674-17.703-14.002-40.884-18.555-49.684l1.383-2.81l98.611,98.611l-17.111,17.11
			L255.884,135.972z M384.688,191.348c10.398,15.64,15.347,31.073,17.691,42.729l-31.198-31.198L384.688,191.348z M404.391,305.837
			L333.554,235l25.947-22.151l44.924,44.924L404.391,305.837z M489.767,299.335c-4.012,15.159-15.438,26.644-30.563,30.721
			c-14.096,3.801-28.646,0.405-39.515-9.072l0.039-55.642l72.224,24.915C491.288,293.279,490.57,296.305,489.767,299.335z"/>
	</g>
</g>
<g>
</g>
<g>
</g>
<g>
</g>
<g>
</g>
<g>
</g>
<g>
</g>
<g>
</g>
<g>
</g>
<g>
</g>
<g>
</g>
<g>
</g>
<g>
</g>
<g>
</g>
<g>
</g>
<g>
</g>
</svg>
