<?xml version="1.0" encoding="iso-8859-1"?>
<!-- Generator: Adobe Illustrator 16.0.0, SVG Export Plug-In . SVG Version: 6.00 Build 0)  -->
<!DOCTYPE svg PUBLIC "-//W3C//DTD SVG 1.1//EN" "http://www.w3.org/Graphics/SVG/1.1/DTD/svg11.dtd">
<svg version="1.1" id="Capa_1" xmlns="http://www.w3.org/2000/svg" xmlns:xlink="http://www.w3.org/1999/xlink" x="0px" y="0px"
	 width="514.968px" height="514.969px" viewBox="0 0 514.968 514.969" style="enable-background:new 0 0 514.968 514.969;"
	 xml:space="preserve">
<g>
	<path d="M213.832,110.958h87.294c5.17,0,9.353-4.184,9.353-9.354c0-5.169-4.183-9.353-9.353-9.353h-87.294
		c-5.167,0-9.353,4.183-9.353,9.353C204.479,106.774,208.671,110.958,213.832,110.958z"/>
	<path d="M257.488,371.573c-19.61,0-35.561,15.954-35.561,35.561c0,19.607,15.951,35.561,35.561,35.561
		c19.604,0,35.558-15.953,35.558-35.561C293.045,387.527,277.085,371.573,257.488,371.573z M257.488,423.989
		c-9.292,0-16.855-7.557-16.855-16.855c0-9.298,7.557-16.854,16.855-16.854c9.295,0,16.852,7.557,16.852,16.854
		C274.339,416.433,266.777,423.989,257.488,423.989z"/>
	<path d="M477.371,149.459l-82.125-67.851V62.866c0-9.584-7.794-17.378-17.379-17.378H137.102c-9.584,0-17.378,7.794-17.378,17.378
		v18.743l-82.13,67.851c-12.97,5.812-23.276,14.611-29.782,26.113c-23.075,40.8,6.604,99.768,67.562,134.245
		c14.297,8.086,29.368,14.078,44.344,17.914v124.371c0,9.584,7.794,17.379,17.378,17.379h240.771
		c9.585,0,17.379-7.795,17.379-17.379V327.731c14.979-3.824,30.05-9.828,44.348-17.914c60.965-34.471,90.637-93.438,67.564-134.245
		C500.655,164.07,490.339,155.271,477.371,149.459z M438.466,141.58c-0.328,0-0.633-0.052-0.956-0.052
		c-13.597,0-27.937,2.302-42.259,6.567v-42.219L438.466,141.58z M376.54,64.193V154.8c-5.035,2.131-9.998,4.57-14.912,7.182v-35.436
		c0-5.17-4.184-9.353-9.353-9.353H158.98c-5.17,0-9.353,4.183-9.353,9.353v33.484c-3.702-1.866-7.432-3.629-11.204-5.225V64.193
		H376.54z M307.044,267.437c0.146-8.963,2.91-18.852,8.434-29.161c6.399-11.935,15.831-23.3,27.443-33.445v101.248
		c-14.669-2.881-25.775-9.756-31.48-19.839c-2.083-3.69-3.355-7.77-3.995-12.111c0.019-0.28,0.092-0.548,0.092-0.834
		C307.538,271.298,307.336,269.361,307.044,267.437z M342.921,173.359c-21.458,14.797-38.751,33.223-49.42,53.131
		c-2.143,3.991-3.878,7.965-5.425,11.917c-8.409-5.742-18.901-9.198-30.303-9.198c-11.618,0-22.292,3.574-30.766,9.505
		c-1.571-4.055-3.343-8.126-5.538-12.224c-11.286-21.062-29.922-40.521-53.131-55.719v-34.873h174.588v37.46H342.921z
		 M199.485,238.27c9.776,18.243,11.21,35.28,4.04,47.958c-6.165,10.912-18.718,18-35.192,20.405v-104.94
		C181.671,212.598,192.422,225.09,199.485,238.27z M149.627,307.376c-3.684-0.213-7.414-0.561-11.204-1.151v-123.93
		c2.338,1.179,4.67,2.384,6.972,3.688c1.446,0.815,2.816,1.708,4.232,2.561V307.376z M168.333,331.812
		c25.964-2.887,46.347-14.633,56.903-33.302c3.717-6.57,5.949-13.731,7.002-21.221c0.43-1.267,0.719-2.594,0.719-4.001
		c0-10.369,11.365-19.132,24.816-19.132c11.919,0,22.155,6.887,24.354,15.655c0.243,10.26,2.673,19.973,7.605,28.698
		c10.041,17.756,29.033,29.161,53.194,32.729v10.424H168.339v-9.852H168.333z M361.627,190.796c2.588-1.659,5.219-3.276,7.935-4.813
		c2.301-1.303,4.634-2.509,6.972-3.688v123.93c-5.066,0.792-10.035,1.193-14.912,1.304V190.796H361.627z M119.724,105.876v42.219
		c-14.322-4.266-28.665-6.567-42.256-6.567c-0.332,0-0.63,0.046-0.956,0.052L119.724,105.876z M87.649,288.116
		c-47.157-26.678-73.782-72.586-58.124-100.265c7.682-13.588,25.151-21.382,47.937-21.382c13.448,0,27.894,2.7,42.255,7.775V301.89
		C108.924,298.607,98.074,294.01,87.649,288.116z M376.54,450.781h-238.11V331.36c3.772,0.481,7.508,0.792,11.204,0.969v18.688
		c0,5.17,4.184,9.354,9.353,9.354h193.294c5.17,0,9.353-4.184,9.353-9.354v-18.548c4.896-0.091,9.871-0.469,14.912-1.12v119.433
		H376.54z M427.324,288.109c-10.432,5.9-21.275,10.498-32.078,13.78V174.245c14.37-5.075,28.814-7.775,42.259-7.775
		c22.786,0,40.262,7.794,47.94,21.382C501.099,215.53,474.478,261.438,427.324,288.109z"/>
</g>
<g>
</g>
<g>
</g>
<g>
</g>
<g>
</g>
<g>
</g>
<g>
</g>
<g>
</g>
<g>
</g>
<g>
</g>
<g>
</g>
<g>
</g>
<g>
</g>
<g>
</g>
<g>
</g>
<g>
</g>
</svg>
