<svg height="512pt" viewBox="-67 0 512 512" width="512pt" xmlns="http://www.w3.org/2000/svg"><path d="m37.5 386c-16.5 0-30-13.5-30-30v-140c0-16.5 13.5-30 30-30s30 13.5 30 30v140c0 16.5-13.5 30-30 30zm0 0" fill="#6d6670"/><path d="m37.5 186c-5.457031 0-10.578125 1.484375-15 4.054688 8.945312 5.210937 15 14.902343 15 25.945312v140c0 11.042969-6.054688 20.738281-15 25.945312 4.421875 2.570313 9.542969 4.054688 15 4.054688 16.5 0 30-13.5 30-30v-140c0-16.5-13.5-30-30-30zm0 0" fill="#5b545f"/><path d="m339.5 386c-16.5 0-30-13.5-30-30v-140c0-16.5 13.5-30 30-30s30 13.5 30 30v140c0 16.5-13.5 30-30 30zm0 0" fill="#6d6670"/><path d="m339.5 186c-5.457031 0-10.578125 1.484375-15 4.054688 8.945312 5.210937 15 14.902343 15 25.945312v140c0 11.042969-6.054688 20.738281-15 25.945312 4.421875 2.570313 9.542969 4.054688 15 4.054688 16.5 0 30-13.5 30-30v-140c0-16.5-13.5-30-30-30zm0 0" fill="#5b545f"/><path d="m7.5 288h60v40h-60zm0 0" fill="#71f6fc"/><path d="m37.5 288h30v40h-30zm0 0" fill="#3be3eb"/><path d="m309.5 288h60v40h-60zm0 0" fill="#71f6fc"/><path d="m339.5 288h30v40h-30zm0 0" fill="#3be3eb"/><path d="m270.5 388h-164c-5.523438 0-10-4.476562-10-10v-40c0-5.523438 4.476562-10 10-10h164c5.523438 0 10 4.476562 10 10v40c0 5.523438-4.476562 10-10 10zm0 0" fill="#e1eaf0"/><path d="m270.5 328h-30c5.523438 0 10 4.476562 10 10v40c0 5.523438-4.476562 10-10 10h30c5.523438 0 10-4.476562 10-10v-40c0-5.523438-4.476562-10-10-10zm0 0" fill="#cfd8e0"/><path d="m159.160156 137.5h60v30.5h-60zm0 0" fill="#6d6670"/><path d="m189.160156 137.5h30v30.5h-30zm0 0" fill="#5b545f"/><path d="m293.5 298h-210c-8.835938 0-16-7.164062-16-16v-98c0-8.835938 7.164062-16 16-16h210c8.835938 0 16 7.164062 16 16v98c0 8.835938-7.164062 16-16 16zm0 0" fill="#e1eaf0"/><path d="m293.5 168h-30c8.835938 0 16 7.164062 16 16v98c0 8.835938-7.164062 16-16 16h30c8.835938 0 16-7.164062 16-16v-98c0-8.835938-7.164062-16-16-16zm0 0" fill="#cfd8e0"/><path d="m243.5 137.5h-110c-27.613281 0-50-22.386719-50-50v-30c0-27.613281 22.386719-50 50-50h110c27.613281 0 50 22.386719 50 50v30c0 27.613281-22.386719 50-50 50zm0 0" fill="#f54558"/><path d="m243.5 7.5h-30c27.613281 0 50 22.386719 50 50v30c0 27.613281-22.386719 50-50 50h30c27.613281 0 50-22.386719 50-50v-30c0-27.613281-22.386719-50-50-50zm0 0" fill="#d43b4c"/><path d="m165.5 70.75c0 14.359375-11.640625 26-26 26s-26-11.640625-26-26 11.640625-26 26-26 26 11.640625 26 26zm0 0" fill="#ffd659"/><path d="m263.5 70.75c0 14.359375-11.640625 26-26 26s-26-11.640625-26-26 11.640625-26 26-26 26 11.640625 26 26zm0 0" fill="#ffd659"/><path d="m118.5 298h140v30h-140zm0 0" fill="#6d6670"/><path d="m228.5 298h30v30h-30zm0 0" fill="#5b545f"/><path d="m264.5 231h-150c-8.285156 0-15-6.714844-15-15s6.714844-15 15-15h150c8.285156 0 15 6.714844 15 15s-6.714844 15-15 15zm0 0" fill="#ffd659"/><path d="m144.5 504.5c-16.570312 0-30-13.429688-30-30v-86.5h60v86.5c0 16.570312-13.429688 30-30 30zm0 0" fill="#6d6670"/><path d="m144.5 388v86.5c0 11.101562-6.035156 20.789062-15 25.976562 4.414062 2.554688 9.535156 4.023438 15 4.023438 16.570312 0 30-13.429688 30-30v-86.5zm0 0" fill="#5b545f"/><path d="m232.5 504.5c-16.570312 0-30-13.429688-30-30v-86.5h60v86.5c0 16.570312-13.429688 30-30 30zm0 0" fill="#6d6670"/><path d="m232.5 388v86.5c0 11.101562-6.035156 20.789062-15 25.976562 4.414062 2.554688 9.535156 4.023438 15 4.023438 16.570312 0 30-13.429688 30-30v-86.5zm0 0" fill="#5b545f"/><path d="m204.5 358h-32c-16.570312 0-30-13.429688-30-30h92c0 16.570312-13.429688 30-30 30zm0 0" fill="#f54558"/><path d="m173 70.75c0-18.472656-15.027344-33.5-33.5-33.5s-33.5 15.027344-33.5 33.5 15.027344 33.5 33.5 33.5 33.5-15.027344 33.5-33.5zm-33.5 18.5c-10.199219 0-18.5-8.300781-18.5-18.5s8.300781-18.5 18.5-18.5 18.5 8.300781 18.5 18.5-8.300781 18.5-18.5 18.5zm0 0"/><path d="m237.5 104.25c18.472656 0 33.5-15.027344 33.5-33.5s-15.027344-33.5-33.5-33.5-33.5 15.027344-33.5 33.5 15.027344 33.5 33.5 33.5zm0-52c10.199219 0 18.5 8.300781 18.5 18.5s-8.300781 18.5-18.5 18.5-18.5-8.300781-18.5-18.5 8.300781-18.5 18.5-18.5zm0 0"/><path d="m369.5 231.25c4.140625 0 7.5-3.359375 7.5-7.5v-7.75c0-20.679688-16.820312-37.5-37.5-37.5-8.433594 0-16.226562 2.800781-22.5 7.519531v-2.019531c0-12.957031-10.542969-23.5-23.5-23.5h-66.839844v-15.5h16.839844c31.707031 0 57.5-25.792969 57.5-57.5v-30c0-31.707031-25.792969-57.5-57.5-57.5h-110c-31.707031 0-57.5 25.792969-57.5 57.5v30c0 31.707031 25.792969 57.5 57.5 57.5h18.160156v15.5h-27.328125c-4.140625 0-7.5 3.359375-7.5 7.5s3.359375 7.5 7.5 7.5h169.167969c4.6875 0 8.5 3.8125 8.5 8.5v98c0 4.6875-3.8125 8.5-8.5 8.5h-210c-4.6875 0-8.5-3.8125-8.5-8.5v-98c0-4.6875 3.8125-8.5 8.5-8.5h9c4.140625 0 7.5-3.359375 7.5-7.5s-3.359375-7.5-7.5-7.5h-9c-12.957031 0-23.5 10.542969-23.5 23.5v2.019531c-6.273438-4.71875-14.066406-7.519531-22.5-7.519531-20.679688 0-37.5 16.820312-37.5 37.5v140c0 20.679688 16.820312 37.5 37.5 37.5s37.5-16.820312 37.5-37.5v-52.089844c2.636719 1.027344 5.503906 1.589844 8.5 1.589844h27.5v15h-4.5c-9.648438 0-17.5 7.851562-17.5 17.5v40c0 9.648438 7.851562 17.5 17.5 17.5h.5v20.25c0 4.140625 3.359375 7.5 7.5 7.5s7.5-3.359375 7.5-7.5v-20.25h45v79c0 12.40625-10.09375 22.5-22.5 22.5s-22.5-10.09375-22.5-22.5v-26.5c0-4.140625-3.359375-7.5-7.5-7.5s-7.5 3.359375-7.5 7.5v26.5c0 20.679688 16.820312 37.5 37.5 37.5s37.5-16.820312 37.5-37.5v-79h13v79c0 20.679688 16.820312 37.5 37.5 37.5s37.5-16.820312 37.5-37.5v-79h.5c9.648438 0 17.5-7.851562 17.5-17.5v-40c0-9.648438-7.851562-17.5-17.5-17.5h-4.5v-15h27.5c2.996094 0 5.863281-.5625 8.5-1.589844v52.089844c0 20.679688 16.820312 37.5 37.5 37.5s37.5-16.820312 37.5-37.5v-100c0-4.140625-3.359375-7.5-7.5-7.5s-7.5 3.359375-7.5 7.5v24.5h-45v-64.5c0-12.40625 10.09375-22.5 22.5-22.5s22.5 10.09375 22.5 22.5v7.75c0 4.140625 3.359375 7.5 7.5 7.5zm-278.5-143.75v-30c0-23.433594 19.066406-42.5 42.5-42.5h110c23.433594 0 42.5 19.066406 42.5 42.5v30c0 23.433594-19.066406 42.5-42.5 42.5h-110c-23.433594 0-42.5-19.066406-42.5-42.5zm75.660156 73v-15.5h45v15.5zm-129.160156 33c12.40625 0 22.5 10.09375 22.5 22.5v64.5h-45v-64.5c0-12.40625 10.09375-22.5 22.5-22.5zm-22.5 102h45v25h-45zm22.5 83c-12.40625 0-22.5-10.09375-22.5-22.5v-20.5h45v20.5c0 12.40625-10.09375 22.5-22.5 22.5zm217.5 96c0 12.40625-10.09375 22.5-22.5 22.5s-22.5-10.09375-22.5-22.5v-79h45zm18-136.5v40c0 1.378906-1.121094 2.5-2.5 2.5h-164c-1.378906 0-2.5-1.121094-2.5-2.5v-40c0-1.378906 1.121094-2.5 2.5-2.5h29.253906c3.484375 17.097656 18.636719 30 36.746094 30h32c18.109375 0 33.261719-12.902344 36.746094-30h29.253906c1.378906 0 2.5 1.121094 2.5 2.5zm-121.714844-2.5h74.429688c-3.09375 8.730469-11.4375 15-21.214844 15h-32c-9.777344 0-18.121094-6.269531-21.214844-15zm99.714844-15h-125v-15h125zm88.5 58c-12.40625 0-22.5-10.09375-22.5-22.5v-20.5h45v20.5c0 12.40625-10.09375 22.5-22.5 22.5zm22.5-58h-45v-25h45zm0 0"/><path d="m114.5 238.5h150c12.40625 0 22.5-10.09375 22.5-22.5s-10.09375-22.5-22.5-22.5h-150c-12.40625 0-22.5 10.09375-22.5 22.5s10.09375 22.5 22.5 22.5zm0-30h150c4.136719 0 7.5 3.363281 7.5 7.5s-3.363281 7.5-7.5 7.5h-150c-4.136719 0-7.5-3.363281-7.5-7.5s3.363281-7.5 7.5-7.5zm0 0"/></svg>